#N canvas 219 83 596 583 12;
#X msg 25 67 48 50 52 53 55 58 69;
#X floatatom 25 270 5 0 0 0 - - - 0;
#X floatatom 47 243 5 0 0 0 - - - 0;
#X floatatom 70 217 5 0 0 0 - - - 0;
#X floatatom 93 193 5 0 0 0 - - - 0;
#X floatatom 116 166 5 0 0 0 - - - 0;
#X floatatom 139 144 5 0 0 0 - - - 0;
#X floatatom 162 119 5 0 0 0 - - - 0;
#X obj 25 91 unpack f f f f f f f;
#X obj 449 178 route 1 2 3 4 5 6 7;
#X obj 449 364 bng 19 250 50 0 empty empty empty 0 -10 0 12 #fcfcfc #000000 #000000;
#X obj 486 308 bng 19 250 50 0 empty empty empty 0 -10 0 12 #fcfcfc #000000 #000000;
#X obj 560 215 bng 19 250 50 0 empty empty empty 0 -10 0 12 #fcfcfc #000000 #000000;
#X obj 541 239 bng 19 250 50 0 empty empty empty 0 -10 0 12 #fcfcfc #000000 #000000;
#X obj 467 335 bng 19 250 50 0 empty empty empty 0 -10 0 12 #fcfcfc #000000 #000000;
#X obj 504 285 bng 19 250 50 0 empty empty empty 0 -10 0 12 #fcfcfc #000000 #000000;
#X obj 523 264 bng 19 250 50 0 empty empty empty 0 -10 0 12 #fcfcfc #000000 #000000;
#X obj 449 150 random 7;
#X obj 449 122 metro;
#X floatatom 481 98 5 0 0 0 - - - 0;
#X obj 481 74 random 1000;
#X obj 448 94 tgl 19 0 empty empty empty 0 -10 0 12 #fcfcfc #000000 #000000 0 1;
#X obj 481 49 metro 200;
#X obj 25 326 osc~;
#X obj 25 300 mtof~;
#X obj 77 326 osc~;
#X obj 77 300 mtof~;
#X obj 129 326 osc~;
#X obj 129 300 mtof~;
#X obj 179 326 osc~;
#X obj 179 300 mtof~;
#X obj 226 326 osc~;
#X obj 226 300 mtof~;
#X obj 272 326 osc~;
#X obj 272 300 mtof~;
#X obj 318 326 osc~;
#X obj 318 300 mtof~;
#X obj 24 376 *~;
#X obj 76 376 *~;
#X obj 128 376 *~;
#X obj 178 376 *~;
#X obj 226 376 *~;
#X obj 272 376 *~;
#X obj 317 377 *~;
#X obj 403 471 line;
#X connect 0 0 8 0;
#X connect 1 0 24 0;
#X connect 2 0 26 0;
#X connect 3 0 28 0;
#X connect 4 0 30 0;
#X connect 5 0 32 0;
#X connect 6 0 34 0;
#X connect 7 0 36 0;
#X connect 8 0 1 0;
#X connect 8 1 2 0;
#X connect 8 2 3 0;
#X connect 8 3 4 0;
#X connect 8 4 5 0;
#X connect 8 5 6 0;
#X connect 8 6 7 0;
#X connect 9 0 10 0;
#X connect 9 1 14 0;
#X connect 9 2 11 0;
#X connect 9 3 15 0;
#X connect 9 4 16 0;
#X connect 9 5 13 0;
#X connect 9 6 12 0;
#X connect 17 0 9 0;
#X connect 18 0 17 0;
#X connect 19 0 18 1;
#X connect 20 0 19 0;
#X connect 21 0 18 0;
#X connect 21 0 22 0;
#X connect 22 0 20 0;
#X connect 23 0 37 0;
#X connect 24 0 23 0;
#X connect 25 0 38 0;
#X connect 26 0 25 0;
#X connect 27 0 39 0;
#X connect 28 0 27 0;
#X connect 29 0 40 0;
#X connect 30 0 29 0;
#X connect 31 0 41 0;
#X connect 32 0 31 0;
#X connect 33 0 42 0;
#X connect 34 0 33 0;
#X connect 35 0 43 0;
#X connect 36 0 35 0;
