#N canvas 219 83 799 583 12;
#X msg 25 67 48 50 52 53 55 58 69;
#X floatatom 25 270 5 0 0 0 - - - 0;
#X floatatom 47 243 5 0 0 0 - - - 0;
#X floatatom 70 217 5 0 0 0 - - - 0;
#X floatatom 93 193 5 0 0 0 - - - 0;
#X floatatom 116 166 5 0 0 0 - - - 0;
#X floatatom 139 144 5 0 0 0 - - - 0;
#X floatatom 162 119 5 0 0 0 - - - 0;
#X obj 25 91 unpack f f f f f f f;
#X obj 449 178 route 1 2 3 4 5 6 7;
#X obj 449 364 bng 19 250 50 0 empty empty empty 0 -10 0 12 #fcfcfc #000000 #000000;
#X obj 486 308 bng 19 250 50 0 empty empty empty 0 -10 0 12 #fcfcfc #000000 #000000;
#X obj 560 215 bng 19 250 50 0 empty empty empty 0 -10 0 12 #fcfcfc #000000 #000000;
#X obj 541 239 bng 19 250 50 0 empty empty empty 0 -10 0 12 #fcfcfc #000000 #000000;
#X obj 467 335 bng 19 250 50 0 empty empty empty 0 -10 0 12 #fcfcfc #000000 #000000;
#X obj 504 285 bng 19 250 50 0 empty empty empty 0 -10 0 12 #fcfcfc #000000 #000000;
#X obj 523 264 bng 19 250 50 0 empty empty empty 0 -10 0 12 #fcfcfc #000000 #000000;
#X obj 449 150 random 7;
#X obj 449 122 metro;
#X floatatom 481 98 5 0 0 0 - - - 0;
#X obj 481 74 random 1000;
#X obj 448 94 tgl 19 0 empty empty empty 0 -10 0 12 #fcfcfc #000000 #000000 0 1;
#X obj 481 49 metro 200;
#X obj 25 326 osc~;
#X obj 25 300 mtof~;
#X obj 77 326 osc~;
#X obj 77 300 mtof~;
#X obj 129 326 osc~;
#X obj 129 300 mtof~;
#X obj 179 326 osc~;
#X obj 179 300 mtof~;
#X obj 226 326 osc~;
#X obj 226 300 mtof~;
#X obj 272 326 osc~;
#X obj 272 300 mtof~;
#X obj 318 326 osc~;
#X obj 318 300 mtof~;
#X obj 24 376 *~;
#X obj 76 376 *~;
#X obj 128 376 *~;
#X obj 178 376 *~;
#X obj 226 376 *~;
#X obj 272 376 *~;
#X obj 317 377 *~;
#X obj 630 434 line;
#X obj 630 366 random 999;
#X obj 630 389 / 1000;
#X obj 642 413 random 800;
#X obj 629 542 line;
#X obj 629 474 random 999;
#X obj 629 497 / 1000;
#X obj 641 521 random 800;
#X obj 511 402 line;
#X obj 511 334 random 999;
#X obj 511 357 / 1000;
#X obj 523 381 random 800;
#X obj 512 501 line;
#X obj 512 433 random 999;
#X obj 512 456 / 1000;
#X obj 524 480 random 800;
#X obj 401 459 line;
#X obj 401 391 random 999;
#X obj 401 414 / 1000;
#X obj 413 438 random 800;
#X obj 599 339 line;
#X obj 599 271 random 999;
#X obj 599 294 / 1000;
#X obj 611 318 random 800;
#X obj 597 247 line;
#X obj 597 179 random 999;
#X obj 597 202 / 1000;
#X obj 609 226 random 800;
#X obj 400 485 s e1;
#X obj 510 527 s e2;
#X obj 555 408 s e3;
#X obj 671 549 s e4;
#X obj 679 442 s e5;
#X obj 678 336 s e6;
#X obj 670 249 s e7;
#X obj 42 351 r e1;
#X text 82 21 Escala;
#X text 577 105 Gerador de envelopes;
#X obj 94 351 r e2;
#X obj 146 351 r e3;
#X obj 196 353 r e4;
#X obj 244 354 r e5;
#X obj 288 354 r e6;
#X obj 335 355 r e7;
#X obj 21 480 output~;
#X obj 79 446 rev2~ 100 90 3000 20;
#X obj 170 480 output~;
#X connect 0 0 8 0;
#X connect 1 0 24 0;
#X connect 2 0 26 0;
#X connect 3 0 28 0;
#X connect 4 0 30 0;
#X connect 5 0 32 0;
#X connect 6 0 34 0;
#X connect 7 0 36 0;
#X connect 8 0 1 0;
#X connect 8 1 2 0;
#X connect 8 2 3 0;
#X connect 8 3 4 0;
#X connect 8 4 5 0;
#X connect 8 5 6 0;
#X connect 8 6 7 0;
#X connect 9 0 10 0;
#X connect 9 1 14 0;
#X connect 9 2 11 0;
#X connect 9 3 15 0;
#X connect 9 4 16 0;
#X connect 9 5 13 0;
#X connect 9 6 12 0;
#X connect 10 0 61 0;
#X connect 10 0 63 0;
#X connect 11 0 53 0;
#X connect 11 0 55 0;
#X connect 12 0 69 0;
#X connect 12 0 71 0;
#X connect 13 0 65 0;
#X connect 13 0 67 0;
#X connect 14 0 57 0;
#X connect 14 0 59 0;
#X connect 15 0 49 0;
#X connect 15 0 51 0;
#X connect 16 0 45 0;
#X connect 16 0 47 0;
#X connect 17 0 9 0;
#X connect 18 0 17 0;
#X connect 19 0 18 1;
#X connect 20 0 19 0;
#X connect 21 0 18 0;
#X connect 21 0 22 0;
#X connect 22 0 20 0;
#X connect 23 0 37 0;
#X connect 24 0 23 0;
#X connect 25 0 38 0;
#X connect 26 0 25 0;
#X connect 27 0 39 0;
#X connect 28 0 27 0;
#X connect 29 0 40 0;
#X connect 30 0 29 0;
#X connect 31 0 41 0;
#X connect 32 0 31 0;
#X connect 33 0 42 0;
#X connect 34 0 33 0;
#X connect 35 0 43 0;
#X connect 36 0 35 0;
#X connect 37 0 89 0;
#X connect 38 0 89 0;
#X connect 39 0 89 0;
#X connect 40 0 89 0;
#X connect 41 0 89 0;
#X connect 42 0 89 0;
#X connect 43 0 89 0;
#X connect 44 0 76 0;
#X connect 45 0 46 0;
#X connect 46 0 44 0;
#X connect 47 0 44 1;
#X connect 48 0 75 0;
#X connect 49 0 50 0;
#X connect 50 0 48 0;
#X connect 51 0 48 1;
#X connect 52 0 74 0;
#X connect 53 0 54 0;
#X connect 54 0 52 0;
#X connect 55 0 52 1;
#X connect 56 0 73 0;
#X connect 57 0 58 0;
#X connect 58 0 56 0;
#X connect 59 0 56 1;
#X connect 60 0 72 0;
#X connect 61 0 62 0;
#X connect 62 0 60 0;
#X connect 63 0 60 1;
#X connect 64 0 77 0;
#X connect 65 0 66 0;
#X connect 66 0 64 0;
#X connect 67 0 64 1;
#X connect 68 0 78 0;
#X connect 69 0 70 0;
#X connect 70 0 68 0;
#X connect 71 0 68 1;
#X connect 79 0 37 1;
#X connect 82 0 38 1;
#X connect 83 0 39 1;
#X connect 84 0 40 1;
#X connect 85 0 41 1;
#X connect 86 0 42 1;
#X connect 87 0 43 1;
#X connect 89 0 88 0;
#X connect 89 1 88 1;
#X connect 89 2 90 0;
#X connect 89 3 90 1;
