#N canvas 584 212 1366 685 12;
#X obj 141 178 noise~;
#X obj 86 210 sigmund~ -npeak 10 peaks;
#X obj 82 139 phasor~;
#X obj 86 238 route 0 1 2 3 4 5 6 7 8 9;
#X floatatom 86 362 5 0 0 0 - - - 0;
#X floatatom 117 340 5 0 0 0 - - - 0;
#X floatatom 149 317 5 0 0 0 - - - 0;
#X floatatom 181 295 5 0 0 0 - - - 0;
#X floatatom 240 362 5 0 0 0 - - - 0;
#X floatatom 271 340 5 0 0 0 - - - 0;
#X floatatom 303 317 5 0 0 0 - - - 0;
#X floatatom 335 295 5 0 0 0 - - - 0;
#X text 281 361 frequency (Hz.);
#X text 312 339 peak amplitude (linear);
#X text 343 317 cosine component;
#X text 376 294 sine component;
#X text 77 389 loudest partial;
#X text 241 389 quietest partial;
#X obj 240 269 unpack f f f f;
#X obj 86 270 unpack f f f f;
#X obj 82 111 nbx 5 17 -1e+37 1e+37 0 1 empty empty empty 0 -10 0 12 #dfdfdf #000000 #000000 438 256;
#X connect 0 0 1 0;
#X connect 1 0 3 0;
#X connect 2 0 1 0;
#X connect 3 0 19 0;
#X connect 3 9 18 0;
#X connect 18 0 8 0;
#X connect 18 1 9 0;
#X connect 18 2 10 0;
#X connect 18 3 11 0;
#X connect 19 0 4 0;
#X connect 19 1 5 0;
#X connect 19 2 6 0;
#X connect 19 3 7 0;
#X connect 20 0 2 0;
